<svg enable-background="new 0 0 125 40" viewBox="0 0 125 40" xmlns="http://www.w3.org/2000/svg" xmlns:xlink="http://www.w3.org/1999/xlink"><linearGradient id="a" gradientUnits="userSpaceOnUse" x1="11.7581" x2="3.0425" y1="22.7445" y2="9.8231"><stop offset="0" stop-color="#22c9fd"/><stop offset=".0493" stop-color="#2abefd"/><stop offset=".3892" stop-color="#6b6bff"/><stop offset=".5271" stop-color="#756af3"/><stop offset=".5591" stop-color="#8d68d6"/><stop offset=".6057" stop-color="#ac65b2"/><stop offset=".6305" stop-color="#b864a4"/><stop offset=".7326" stop-color="#d56182"/><stop offset=".8377" stop-color="#ec5f67"/><stop offset=".9304" stop-color="#fa5d56"/><stop offset="1" stop-color="#ff5d50"/></linearGradient><path d="m18.385 7.328h-11.405c-1.031-.037-2.062.072-3.063.322-1.534.459-2.783 1.58-3.406 3.055-.386 1.157-.556 2.374-.501 3.592v11.405c-.055 1.218.115 2.436.501 3.592.622 1.475 1.871 2.596 3.405 3.055 1.001.25 2.032.359 3.063.323h11.405c1.031.036 2.062-.072 3.063-.323 1.534-.459 2.783-1.579 3.405-3.055.386-1.157.556-2.374.501-3.592v-11.405c.055-1.218-.115-2.436-.501-3.592-.622-1.475-1.871-2.596-3.405-3.055-1-.25-2.031-.359-3.062-.322z"/><path d="m18.385 7.683c.997-.038 1.994.066 2.962.308.607.179 1.173.474 1.669.868.66.522 1.179 1.201 1.507 1.976.368 1.115.53 2.289.477 3.462v11.405c.053 1.173-.108 2.347-.477 3.462-.328.775-.847 1.454-1.507 1.976-.495.394-1.062.689-1.669.868-.968.242-1.965.346-2.962.308h-11.405c-.997.038-1.994-.066-2.962-.308-.607-.179-1.173-.474-1.669-.868-.66-.522-1.179-1.201-1.507-1.976-.368-1.115-.53-2.289-.477-3.462v-11.405c-.053-1.173.108-2.347.477-3.462.328-.775.847-1.454 1.507-1.976.495-.394 1.062-.689 1.669-.868.968-.242 1.965-.346 2.962-.308z" fill="#fff"/><path d="m13.576 7.919c-.008-.462-.267-.78-.719-.704 0 0-7.33 1.436-8.184 1.614-.554.116-.739.463-.727 1.045-.002.049 0 9.499 0 9.499 0 .952-.807.726-1.879.996-1.821.458-1.873 1.263-1.992 1.517-.186 1.015.051 2.138 1.427 2.468.565.135.918.073 1.479-.035.907-.174 1.366-.619 1.764-1.451.187-.391.205-1.045.205-1.474-.001-2.702-.001-5.271-.001-7.973 0-.451.125-.593.569-.682 2.171-.43 4.354-.884 6.524-1.311.488-.097.541.165.541.659.001 2.023-.008 5.332-.008 5.651 0 1.14-2.135.438-3.503 1.702-.48.47-.564 1.354-.414 1.837.231.736.708 1.191 1.436 1.348.465.101 1.996.269 2.9-.832.611-.745.567-1.197.567-1.877z" fill="url(#a)" transform="translate(5 4)"/><g transform="translate(26 5)"><path d="m12.452 16.973h-4.771l-1.145 3.383h-2.021l4.52-12.517h2.099l4.52 12.517h-2.056zm-4.277-1.561h3.782l-1.865-5.491h-.052z"/><path d="m25.403 15.794c0 2.837-1.518 4.659-3.808 4.659-1.184.062-2.299-.558-2.871-1.596h-.043v4.519h-1.874v-12.145h1.813v1.519h.035c.597-1.033 1.714-1.653 2.906-1.614 2.316 0 3.842 1.83 3.842 4.658zm-1.925 0c0-1.847-.954-3.062-2.412-3.062-1.431 0-2.394 1.24-2.394 3.062 0 1.839.963 3.071 2.394 3.071 1.457 0 2.412-1.206 2.412-3.071z"/><path d="m35.44 15.794c0 2.837-1.518 4.659-3.808 4.659-1.184.062-2.299-.558-2.871-1.596h-.043v4.519h-1.874v-12.145h1.813v1.519h.035c.597-1.033 1.714-1.653 2.906-1.614 2.315 0 3.842 1.83 3.842 4.658zm-1.926 0c0-1.847-.954-3.062-2.412-3.062-1.431 0-2.394 1.24-2.394 3.062 0 1.839.963 3.071 2.394 3.071 1.458 0 2.412-1.206 2.412-3.071z"/><path d="m36.95 7.839h1.873v12.518h-1.873z"/><path d="m48.574 17.677c-.426 1.784-2.105 2.977-3.93 2.793-2.654 0-4.303-1.779-4.303-4.632 0-2.863 1.657-4.719 4.225-4.719 2.524 0 4.112 1.735 4.112 4.502v.642h-6.445v.113c-.06.679.174 1.352.644 1.847s1.129.764 1.811.738c.909.085 1.766-.437 2.108-1.284zm-6.333-2.724h4.563c.034-.611-.188-1.208-.613-1.647-.425-.44-1.014-.682-1.625-.669-.616-.004-1.209.239-1.645.674-.437.434-.681 1.025-.68 1.642z"/><path d="m64.839 20.357v-9.213h-.061l-3.774 9.118h-1.44l-3.782-9.118h-.06v9.213h-1.77v-12.518h2.246l4.052 9.88h.07l4.042-9.88h2.256v12.518z"/><path d="m76.595 20.357h-1.795v-1.57h-.044c-.494 1.1-1.626 1.77-2.828 1.674-.895.052-1.767-.293-2.384-.944s-.916-1.54-.816-2.43v-5.856h1.874v5.492c0 1.388.659 2.125 1.951 2.125.615.02 1.209-.229 1.626-.682s.615-1.066.543-1.677v-5.257h1.874z"/><path d="m81.923 11.127c2.021 0 3.47 1.12 3.513 2.733h-1.76c-.079-.807-.763-1.301-1.804-1.301-1.016 0-1.692.468-1.692 1.18 0 .546.451.91 1.397 1.145l1.535.355c1.839.443 2.533 1.12 2.533 2.456 0 1.648-1.561 2.776-3.79 2.776-2.151 0-3.601-1.102-3.739-2.768h1.856c.131.877.833 1.345 1.97 1.345 1.118 0 1.822-.46 1.822-1.189 0-.563-.347-.867-1.301-1.11l-1.631-.399c-1.648-.399-2.481-1.24-2.481-2.506-.002-1.615 1.446-2.717 3.572-2.717z"/><path d="m87.104 8.828c-.009-.443.251-.847.658-1.022s.879-.087 1.194.224c.316.311.412.781.243 1.191-.169.409-.569.676-1.011.674-.594.004-1.078-.473-1.084-1.067zm.147 2.403h1.874v9.126h-1.874z"/><path d="m97.196 14.371c-.17-1.035-1.106-1.767-2.151-1.683-1.44 0-2.394 1.206-2.394 3.106 0 1.943.962 3.115 2.412 3.115 1.033.103 1.968-.616 2.134-1.64h1.803c-.233 1.963-1.988 3.382-3.956 3.202-2.602 0-4.303-1.779-4.303-4.676 0-2.836 1.7-4.675 4.285-4.675 1.982-.168 3.737 1.275 3.956 3.252z"/></g></svg>