<svg enable-background="new 0 0 125 40" viewBox="0 0 125 40" xmlns="http://www.w3.org/2000/svg" xmlns:xlink="http://www.w3.org/1999/xlink"><linearGradient id="a" gradientTransform="matrix(1 0 0 -1 0 -1278)" gradientUnits="userSpaceOnUse" x1="12.7618" x2="-5.3468" y1="-1285.8165" y2="-1303.925"><stop offset="0" stop-color="#00a0ff"/><stop offset=".0066" stop-color="#00a1ff"/><stop offset=".2601" stop-color="#00beff"/><stop offset=".5122" stop-color="#00d2ff"/><stop offset=".7604" stop-color="#00dfff"/><stop offset="1" stop-color="#00e3ff"/></linearGradient><linearGradient id="b" gradientTransform="matrix(1 0 0 -1 0 -1278)" gradientUnits="userSpaceOnUse" x1="25.7474" x2="-.3616" y1="-1298.0005" y2="-1298.0005"><stop offset="0" stop-color="#ffe000"/><stop offset=".4087" stop-color="#ffbd00"/><stop offset=".7754" stop-color="#ffa500"/><stop offset="1" stop-color="#ff9c00"/></linearGradient><linearGradient id="c" gradientTransform="matrix(1 0 0 -1 0 -1278)" gradientUnits="userSpaceOnUse" x1="16.0282" x2="-8.5285" y1="-1300.4766" y2="-1325.0332"><stop offset="0" stop-color="#ff3a44"/><stop offset="1" stop-color="#c31162"/></linearGradient><linearGradient id="d" gradientTransform="matrix(1 0 0 -1 0 -1278)" gradientUnits="userSpaceOnUse" x1="-2.8867" x2="8.0789" y1="-1276.6086" y2="-1287.5742"><stop offset="0" stop-color="#32a071"/><stop offset=".0685" stop-color="#2da771"/><stop offset=".4762" stop-color="#15cf74"/><stop offset=".8009" stop-color="#06e775"/><stop offset="1" stop-color="#00f076"/></linearGradient><path d="m62.76 17.889c-2.538 0-4.607 1.93-4.607 4.589 0 2.642 2.069 4.589 4.607 4.589s4.607-1.947 4.607-4.589c-.001-2.66-2.069-4.589-4.607-4.589zm0 7.37c-1.391 0-2.59-1.147-2.59-2.781 0-1.651 1.2-2.781 2.59-2.781 1.391 0 2.59 1.13 2.59 2.781 0 1.634-1.2 2.781-2.59 2.781zm-10.05-7.37c-2.538 0-4.607 1.93-4.607 4.589 0 2.642 2.069 4.589 4.607 4.589s4.607-1.947 4.607-4.589c0-2.66-2.069-4.589-4.607-4.589zm0 7.37c-1.391 0-2.59-1.147-2.59-2.781 0-1.651 1.199-2.781 2.59-2.781s2.59 1.13 2.59 2.781c0 1.634-1.199 2.781-2.59 2.781zm-11.954-5.962v1.947h4.659c-.139 1.095-.504 1.895-1.06 2.451-.678.678-1.738 1.425-3.598 1.425-2.868 0-5.111-2.312-5.111-5.18s2.242-5.18 5.111-5.18c1.547 0 2.677.608 3.512 1.391l1.373-1.373c-1.165-1.112-2.712-1.964-4.885-1.964-3.929 0-7.232 3.199-7.232 7.127 0 3.929 3.303 7.127 7.232 7.127 2.121 0 3.72-.695 4.972-1.999 1.286-1.286 1.686-3.094 1.686-4.554 0-.452-.035-.869-.104-1.217h-6.555zm48.889 1.512c-.382-1.026-1.547-2.92-3.929-2.92-2.364 0-4.328 1.86-4.328 4.589 0 2.573 1.947 4.589 4.554 4.589 2.103 0 3.32-1.286 3.824-2.034l-1.564-1.043c-.521.765-1.234 1.269-2.26 1.269s-1.756-.469-2.225-1.391l6.137-2.538zm-6.258 1.53c-.052-1.773 1.373-2.677 2.399-2.677.8 0 1.478.4 1.704.973zm-4.99 4.45h2.016v-13.489h-2.016zm-3.302-7.875h-.069c-.452-.539-1.321-1.026-2.416-1.026-2.295 0-4.398 2.016-4.398 4.607 0 2.573 2.103 4.572 4.398 4.572 1.095 0 1.964-.487 2.416-1.043h.069v.661c0 1.756-.939 2.694-2.451 2.694-1.234 0-1.999-.887-2.312-1.634l-1.756.73c.504 1.217 1.843 2.712 4.068 2.712 2.364 0 4.363-1.391 4.363-4.781v-8.24h-1.912zm-2.312 6.345c-1.391 0-2.555-1.165-2.555-2.764 0-1.617 1.165-2.799 2.555-2.799 1.373 0 2.451 1.182 2.451 2.799 0 1.6-1.078 2.764-2.451 2.764zm26.307-11.959h-4.825v13.489h2.013v-5.111h2.811c2.232 0 4.425-1.616 4.425-4.189s-2.192-4.189-4.424-4.189zm.052 6.501h-2.863v-4.624h2.863c1.505 0 2.36 1.246 2.36 2.312 0 1.046-.854 2.312-2.36 2.312zm12.443-1.937c-1.458 0-2.968.642-3.592 2.065l1.788.746c.382-.746 1.093-.989 1.84-.989 1.041 0 2.1.625 2.117 1.735v.139c-.364-.208-1.145-.521-2.1-.521-1.926 0-3.887 1.059-3.887 3.037 0 1.805 1.579 2.968 3.349 2.968 1.354 0 2.1-.607 2.569-1.319h.069v1.041h1.944v-5.172c-.001-2.394-1.789-3.73-4.097-3.73zm-.243 7.393c-.66 0-1.579-.33-1.579-1.145 0-1.041 1.145-1.44 2.135-1.44.885 0 1.302.191 1.84.451-.157 1.249-1.233 2.134-2.396 2.134zm11.419-7.098-2.308 5.848h-.069l-2.395-5.848h-2.169l3.592 8.174-2.048 4.547h2.1l5.536-12.721zm-18.135 8.63h2.013v-13.489h-2.013z" fill="#707171"/><path d="m.499 6.552c-.313.332-.499.848-.499 1.516v23.864c0 .669.186 1.184.499 1.516l.08.078 13.368-13.368v-.158-.158l-13.368-13.368z" fill="url(#a)"/><path d="m18.403 24.616-4.456-4.458v-.158-.158l4.457-4.457.1.057 5.279 3c1.508.857 1.508 2.259 0 3.116l-5.279 3z" fill="url(#b)"/><path d="m18.504 24.558-4.557-4.558-13.448 13.448c.497.526 1.318.591 2.242.066z" fill="url(#c)"/><path d="m18.504 15.442-15.762-8.956c-.925-.525-1.745-.46-2.242.066l13.447 13.448z" fill="url(#d)"/><path d="m18.404 24.457-15.662 8.899c-.876.498-1.659.465-2.162.012l-.08.08.08.078.001-.001c.503.453 1.286.487 2.162-.012l15.763-8.956z" opacity=".2"/><path d="m.499 33.291c-.313-.333-.499-.848-.499-1.516v.158c0 .668.186 1.184.499 1.516l.08-.08z" opacity=".12"/><path d="m23.784 21.4-5.38 3.057.1.1 5.279-3c.754-.428 1.131-.993 1.131-1.557-.062.511-.446 1.012-1.13 1.4z" opacity=".12"/><path d="m2.742 6.644 21.042 11.956c.684.388 1.068.889 1.131 1.4.001-.565-.377-1.13-1.131-1.558l-21.042-11.956c-1.508-.856-2.742-.145-2.742 1.583v.158c0-1.728 1.234-2.44 2.742-1.583z" fill="#fff" opacity=".25"/></svg>