<svg enable-background="new 0 0 125 40" viewBox="0 0 125 40" xmlns="http://www.w3.org/2000/svg" xmlns:xlink="http://www.w3.org/1999/xlink"><mask id="a" height="25.526" maskUnits="userSpaceOnUse" width="25.526" x="0" y="7.237"><path d="m0 7.237h25.526v25.526h-25.526z" fill="#fff"/></mask><mask id="b" height="25.526" maskUnits="userSpaceOnUse" width="25.526" x="0" y="7.237"><path d="m7.831 7.237c-.254 0-.507 0-.761.002-.256.001-.513.004-.77.011-.56.015-1.124.048-1.678.147-.56.101-1.083.266-1.593.525-.501.256-.96.588-1.357.986-.398.398-.73.856-.986 1.357-.26.51-.424 1.033-.525 1.595-.099.553-.132 1.117-.147 1.677-.007.257-.01.513-.011.77-.003.245-.003.489-.003.734v.181 9.557.181c0 .244 0 .489.002.733.002.257.004.513.011.77.015.559.048 1.123.147 1.677.1.562.266 1.084.525 1.595.256.501.588.96.986 1.357s.856.731 1.357.986c.51.26 1.033.424 1.594.525.553.099 1.118.133 1.677.147.257.007.513.01.77.011.254.002.507.002.761.002h.154 9.557.154c.254 0 .507 0 .761-.002.257-.002.513-.004.77-.011.56-.015 1.124-.048 1.677-.147.561-.1 1.083-.266 1.594-.525.501-.256.96-.588 1.357-.986.398-.398.731-.856.986-1.357.26-.51.424-1.033.525-1.595.099-.553.132-1.117.147-1.677.007-.257.01-.513.011-.77.001-.244.002-.49.002-.734v-9.916c0-.244 0-.49-.002-.734-.002-.257-.004-.513-.011-.77-.015-.559-.048-1.123-.147-1.677-.1-.562-.266-1.084-.525-1.595-.256-.501-.588-.96-.986-1.357-.398-.398-.856-.731-1.357-.986-.51-.26-1.033-.424-1.594-.525-.553-.099-1.118-.133-1.677-.147-.257-.007-.513-.01-.77-.011-.254-.002-.507-.002-.761-.002h-9.864z" fill="#fff"/></mask><linearGradient id="c" gradientTransform="matrix(25.164 0 0 -25.164 9713.9277 -4300.1401)" gradientUnits="userSpaceOnUse" x1="-385.5176" x2="-385.5176" y1="-171.1712" y2="-172.1856"><stop offset="0" stop-color="#ef4db7"/><stop offset="1" stop-color="#c643fd"/></linearGradient><mask id="d" height="6.798" maskUnits="userSpaceOnUse" width="5.967" x="12.758" y="21.649"><path d="m0 7.237h25.526v25.526h-25.526z" fill="#fff"/></mask><mask id="e" height="6.798" maskUnits="userSpaceOnUse" width="5.967" x=".758" y="7.649"><path d="m.758 10.532 4.466 3.244c.236.172.478.338.724.497.084.055.173.1.268.133.011.004.022.007.034.011.069.02.131.029.191.025.058-.005.11-.022.151-.054.043-.03.075-.074.097-.128.022-.055.033-.117.036-.189 0-.012 0-.023 0-.036-.001-.1-.017-.199-.044-.296-.075-.283-.158-.564-.249-.842l-1.706-5.25z" fill="#fff"/></mask><radialGradient id="f" cx="-347.6977" cy="-304.2147" gradientTransform="matrix(5.882 0 0 -5.882 2033.725 -1778.8628)" gradientUnits="userSpaceOnUse" r=".0045"><stop offset="0" stop-color="#f9e3fb"/><stop offset=".7459" stop-color="#f9e3fb"/><stop offset=".8097" stop-color="#f8defb"/><stop offset=".8826" stop-color="#f3d0fa"/><stop offset=".9599" stop-color="#ecbaf9"/><stop offset=".981" stop-color="#eab2f9"/><stop offset="1" stop-color="#eab2f9"/></radialGradient><mask id="g" height="4.665" maskUnits="userSpaceOnUse" width="7.003" x="3.301" y="16.984"><path d="m0 7.237h25.526v25.526h-25.526z" fill="#fff"/></mask><mask id="h" height="4.665" maskUnits="userSpaceOnUse" width="7.003" x=".301" y="7.984"><path d="m1.785 7.984c-.292 0-.585.008-.877.023-.099.005-.199.02-.295.051-.012.003-.023.007-.034.011-.068.024-.124.053-.169.092-.044.037-.075.082-.091.132s-.017.103-.004.16c.014.058.042.115.082.173.007.01.013.019.021.029.06.08.131.151.209.214.227.185.46.363.696.535l4.465 3.245 1.516-4.665z" fill="#fff"/></mask><radialGradient id="i" cx="-319.3553" cy="-339.8254" gradientTransform="matrix(4.599 0 0 -4.599 1456.8436 -1564.647)" gradientUnits="userSpaceOnUse" r=".0058"><stop offset="0" stop-color="#fae1f8"/><stop offset=".6" stop-color="#fae1f8"/><stop offset=".85" stop-color="#f7d6f7"/><stop offset="1" stop-color="#f7d6f7"/></radialGradient><mask id="j" height="6.798" maskUnits="userSpaceOnUse" width="5.967" x="6.791" y="21.649"><path d="m0 7.237h25.526v25.526h-25.526z" fill="#fff"/></mask><mask id="k" height="6.798" maskUnits="userSpaceOnUse" width="5.967" x=".791" y="7.649"><path d="m1.084 12.899c-.09.278-.173.559-.249.842-.025.096-.042.196-.044.296v.036c.002.072.012.134.036.189.022.054.055.097.097.128s.093.049.151.054c.059.005.122-.004.191-.025.011-.003.022-.007.034-.011.094-.032.185-.078.268-.133.245-.159.487-.325.723-.497l4.466-3.245-2.519-1.83-1.449-1.056z" fill="#fff"/></mask><radialGradient id="l" cx="-337.3654" cy="-305.6859" gradientTransform="matrix(5.882 0 0 -5.882 1998.551 -1777.6774)" gradientUnits="userSpaceOnUse" r=".0045"><stop offset="0" stop-color="#fae9fc"/><stop offset=".669" stop-color="#fae9fc"/><stop offset=".8118" stop-color="#f8defa"/><stop offset=".91" stop-color="#f6d4f8"/><stop offset="1" stop-color="#f6d4f8"/></radialGradient><mask id="m" height="4.665" maskUnits="userSpaceOnUse" width="7.004" x="15.21" y="16.983"><path d="m0 7.237h25.526v25.526h-25.526z" fill="#fff"/></mask><mask id="n" height="4.665" maskUnits="userSpaceOnUse" width="7.004" x="1.21" y="7.983"><path d="m1.211 7.984 1.516 4.665 4.466-3.245c.236-.172.469-.35.696-.535.078-.063.149-.134.209-.214.007-.01.014-.019.021-.029.041-.059.069-.115.082-.173.013-.057.012-.111-.004-.16-.016-.05-.047-.094-.091-.132-.045-.039-.102-.068-.168-.092-.012-.004-.023-.008-.034-.011-.095-.029-.195-.044-.295-.05-.292-.017-.584-.024-.878-.024z" fill="#fff"/></mask><radialGradient id="o" cx="-327.8197" cy="-345.7305" gradientTransform="matrix(4.599 0 0 -4.599 1513.8098 -1564.6479)" gradientUnits="userSpaceOnUse" r=".0058"><stop offset="0" stop-color="#fae9fb"/><stop offset=".68" stop-color="#fae9fb"/><stop offset=".8132" stop-color="#f8def8"/><stop offset=".98" stop-color="#f5caf2"/><stop offset="1" stop-color="#f5caf2"/></radialGradient><mask id="p" height="7.548" maskUnits="userSpaceOnUse" width="7.938" x="8.789" y="16.984"><path d="m0 7.237h25.526v25.526h-25.526z" fill="#fff"/></mask><mask id="q" height="6.549" maskUnits="userSpaceOnUse" width="4.906" x="10.305" y="10.435"><path d="m0 7.237h25.526v25.526h-25.526z" fill="#fff"/></mask><mask id="r" height="6.549" maskUnits="userSpaceOnUse" width="4.906" x=".305" y="7.435"><path d="m2.604 7.481c-.051.031-.095.075-.139.132-.007.009-.014.019-.021.028-.058.082-.104.172-.139.265-.106.273-.203.549-.293.827l-1.706 5.251h4.906l-1.707-5.251c-.09-.278-.189-.554-.293-.827-.036-.093-.082-.184-.139-.265-.007-.01-.014-.019-.021-.028-.044-.057-.089-.102-.14-.132-.05-.03-.101-.046-.154-.046s-.104.015-.154.046" fill="#fff"/></mask><radialGradient id="s" cx="-330.8569" cy="-328.4235" gradientTransform="matrix(4.836 0 0 -4.836 1590.5909 -1566.7295)" gradientUnits="userSpaceOnUse" r=".0055"><stop offset="0" stop-color="#fbe3f8"/><stop offset=".745" stop-color="#fbe3f8"/><stop offset=".8082" stop-color="#fadef6"/><stop offset=".8798" stop-color="#f9d1f0"/><stop offset=".9554" stop-color="#f6bae7"/><stop offset=".98" stop-color="#f5b1e3"/><stop offset="1" stop-color="#f5b1e3"/></radialGradient><g mask="url(#a)"><path d="m0 7.237h25.526v25.526h-25.526z" fill="url(#c)" mask="url(#b)"/></g><path d="m31.391 14.125c0-.604.489-1.084 1.094-1.084.613 0 1.102.482 1.102 1.084 0 .594-.489 1.076-1.102 1.076-.605 0-1.094-.482-1.094-1.076zm.148 2.422h1.889v9.2h-1.889zm6.916 9.201v-10.933h-3.866v-1.688h9.681v1.688h-3.857v10.931h-1.959v.002zm13.708 0h-1.811v-1.583h-.044c-.524 1.102-1.442 1.688-2.851 1.688-2.002 0-3.227-1.294-3.227-3.402v-5.903h1.889v5.536c0 1.399.664 2.142 1.967 2.142 1.364 0 2.186-.944 2.186-2.379v-5.299h1.889v9.201h.002zm1.857-9.201h1.801v1.565h.045c.551-1.102 1.478-1.67 2.895-1.67 2.029 0 3.191 1.304 3.191 3.41v5.895h-1.898v-5.527c0-1.382-.638-2.152-1.967-2.152-1.355 0-2.177.962-2.177 2.379v5.3h-1.889v-9.201h-.001zm17.634 6.498c-.254 1.671-1.881 2.816-3.961 2.816-2.676 0-4.338-1.793-4.338-4.67 0-2.886 1.671-4.758 4.259-4.758 2.545 0 4.145 1.749 4.145 4.539v.647h-6.497v.114c0 1.574.989 2.606 2.474 2.606 1.05 0 1.873-.498 2.126-1.294zm-6.383-2.746h4.599c-.044-1.408-.944-2.335-2.256-2.335-1.303 0-2.247.945-2.343 2.335zm11.381-3.857c2.038 0 3.498 1.128 3.541 2.754h-1.775c-.078-.814-.77-1.312-1.819-1.312-1.024 0-1.706.472-1.706 1.189 0 .551.454.918 1.409 1.154l1.547.359c1.854.445 2.554 1.128 2.554 2.475 0 1.662-1.574 2.799-3.822 2.799-2.169 0-3.629-1.111-3.77-2.79h1.872c.132.884.84 1.355 1.985 1.355 1.128 0 1.837-.464 1.837-1.198 0-.569-.35-.874-1.312-1.12l-1.644-.402c-1.662-.402-2.501-1.251-2.501-2.528.001-1.625 1.461-2.735 3.604-2.735zm10.445 5.79c.14 1.251 1.355 2.072 3.018 2.072 1.591 0 2.737-.823 2.737-1.951 0-.979-.692-1.565-2.326-1.967l-1.635-.394c-2.318-.56-3.394-1.644-3.394-3.402 0-2.178 1.898-3.673 4.591-3.673 2.668 0 4.496 1.495 4.557 3.673h-1.907c-.114-1.26-1.154-2.021-2.676-2.021s-2.562.77-2.562 1.889c0 .892.664 1.416 2.292 1.819l1.391.341c2.589.613 3.664 1.652 3.664 3.499 0 2.362-1.881 3.84-4.872 3.84-2.799 0-4.688-1.443-4.809-3.726h1.933v.001zm11.721-7.863v2.178h1.749v1.495h-1.749v5.072c0 .787.35 1.154 1.12 1.154.192 0 .498-.026.621-.044v1.486c-.21.053-.63.087-1.05.087-1.862 0-2.589-.7-2.589-2.483v-5.274h-1.338v-1.495h1.338v-2.178h1.898zm2.525 6.778c0-2.895 1.706-4.714 4.365-4.714 2.667 0 4.364 1.819 4.364 4.714 0 2.903-1.688 4.714-4.364 4.714-2.677 0-4.365-1.81-4.365-4.714zm6.805 0c0-1.985-.909-3.157-2.44-3.157s-2.44 1.181-2.44 3.157c0 1.993.909 3.157 2.44 3.157s2.44-1.163 2.44-3.157zm3.379-4.6h1.801v1.565h.045c.288-1.041 1.127-1.662 2.212-1.662.272 0 .498.036.647.07v1.766c-.148-.061-.481-.114-.848-.114-1.215 0-1.967.822-1.967 2.116v5.456h-1.889v-9.199h-.001zm13.368 6.498c-.254 1.671-1.881 2.816-3.961 2.816-2.676 0-4.338-1.793-4.338-4.67 0-2.886 1.671-4.758 4.259-4.758 2.545 0 4.145 1.749 4.145 4.539v.647h-6.497v.114c0 1.574.989 2.606 2.474 2.606 1.05 0 1.873-.498 2.126-1.294zm-6.384-2.746h4.599c-.044-1.408-.944-2.335-2.256-2.335-1.302 0-2.247.945-2.343 2.335z"/><g mask="url(#d)"><path d="m.758 7.649h5.967v6.798h-5.967z" fill="url(#f)" mask="url(#e)" transform="translate(12 14)"/></g><g mask="url(#g)"><path d="m.301 7.984h7.003v4.665h-7.003z" fill="url(#i)" mask="url(#h)" transform="translate(3 9)"/></g><g mask="url(#j)"><path d="m.791 7.649h5.967v6.798h-5.967z" fill="url(#l)" mask="url(#k)" transform="translate(6 14)"/></g><g mask="url(#m)"><path d="m1.21 7.983h7.004v4.665h-7.004z" fill="url(#o)" mask="url(#n)" transform="translate(14 9)"/></g><path d="m10.305 16.984-1.516 4.665 1.45 1.053 2.519 1.83 3.969-2.883-1.516-4.665z" fill="#fff" mask="url(#p)"/><g mask="url(#q)"><path d="m.305 7.435h4.906v6.549h-4.906z" fill="url(#s)" mask="url(#r)" transform="translate(10 3)"/></g></svg>