<svg enable-background="new 0 0 125 40" viewBox="0 0 125 40" xmlns="http://www.w3.org/2000/svg"><path d="m27.336 28.285c.338-.549.162-1.267-.387-1.605-4.938-3.018-11.06-3.72-18.197-2.088-.629.143-1.021.769-.879 1.398.144.628.771 1.023 1.399.878 6.521-1.489 12.06-.882 16.459 1.807.55.336 1.269.163 1.605-.39z" fill="#fff"/><path d="m32.227 17.26c.493-.831.219-1.907-.612-2.401-6.952-4.127-17.955-4.516-24.572-2.506-.926.281-1.447 1.26-1.168 2.186.28.926 1.26 1.448 2.185 1.168 5.767-1.75 15.727-1.42 21.767 2.166.83.494 1.908.22 2.4-.613z" fill="#fff"/><path d="m29.156 21.178c-5.784-3.554-14.246-4.554-21.049-2.489-.772.235-1.208 1.049-.977 1.822.234.77 1.05 1.206 1.822.973 5.956-1.808 13.642-.911 18.676 2.183.687.422 1.435.207 2.016-.481v.001c.581-.688.199-1.587-.488-2.009z" fill="#fff"/><g fill="#24cf5f"><path d="m18.604 1.266c-10.459-.001-18.665 8.387-18.665 18.733 0 10.348 8.423 18.736 18.77 18.736 10.348 0 18.682-8.387 18.682-18.736 0-10.345-8.328-18.733-18.787-18.733zm-9.332 25.602c-.628.145-1.255-.249-1.399-.878-.142-.628.25-1.255.879-1.398 7.137-1.632 13.258-.93 18.197 2.088.55.338.726 1.056.387 1.606l.001-.001c-.336.552-1.056.725-1.605.389-4.4-2.689-9.939-3.295-16.46-1.806zm20.372-3.682c-.581.687-1.33.902-2.017.48-5.034-3.094-12.716-3.991-18.672-2.183-.772.233-1.591-.202-1.825-.973-.232-.773.202-1.587.974-1.822 6.804-2.064 15.269-1.065 21.053 2.489.686.423 1.068 1.322.487 2.009zm.183-5.313c-6.039-3.586-16-3.916-21.767-2.166-.925.28-1.905-.242-2.185-1.168s.242-1.905 1.168-2.186c6.617-2.01 17.62-1.621 24.572 2.506.832.494 1.105 1.57.612 2.401-.492.833-1.57 1.107-2.4.613z"/><path d="m51.101 18.561c-3.233-.772-3.81-1.313-3.81-2.451 0-1.075 1.013-1.798 2.518-1.798 1.458 0 2.904.55 4.421 1.68.046.034.104.048.16.039.057-.009.105-.04.14-.087l1.579-2.226c.064-.092.048-.219-.04-.288-1.805-1.448-3.837-2.153-6.212-2.153-3.493 0-5.933 2.097-5.933 5.095 0 3.216 2.105 4.355 5.742 5.234 3.096.713 3.617 1.311 3.617 2.378 0 1.183-1.057 1.919-2.756 1.919-1.889 0-3.428-.636-5.15-2.128-.043-.037-.101-.054-.156-.051-.056.005-.109.031-.145.075l-1.77 2.108c-.074.087-.064.218.02.293 2.005 1.79 4.47 2.735 7.13 2.735 3.764 0 6.196-2.057 6.196-5.239.006-2.687-1.602-4.175-5.541-5.133z"/><path d="m65.165 15.37c-1.632 0-2.97.642-4.072 1.96v-1.482c0-.117-.096-.212-.213-.212h-2.896c-.117 0-.211.095-.211.212v16.466c0 .117.094.212.211.212h2.896c.117 0 .213-.096.213-.212v-5.197c1.103 1.238 2.442 1.843 4.072 1.843 3.031 0 6.1-2.334 6.1-6.794.005-4.461-3.065-6.796-6.097-6.796zm2.731 6.796c0 2.271-1.4 3.857-3.404 3.857-1.98 0-3.473-1.658-3.473-3.857s1.493-3.856 3.473-3.856c1.973-.001 3.404 1.621 3.404 3.856z"/><path d="m79.129 15.37c-3.904 0-6.962 3.006-6.962 6.844 0 3.796 3.037 6.771 6.915 6.771 3.917 0 6.985-2.996 6.985-6.819 0-3.811-3.047-6.795-6.937-6.795v-.001zm0 10.674c-2.076 0-3.642-1.668-3.642-3.88 0-2.222 1.512-3.833 3.594-3.833 2.09 0 3.666 1.668 3.666 3.882 0 2.221-1.521 3.831-3.618 3.831z"/><path d="m94.403 15.635h-3.188v-3.259c0-.117-.095-.212-.211-.212h-2.896c-.118 0-.213.095-.213.212v3.259h-1.392c-.117 0-.211.095-.211.212v2.489c0 .117.094.212.211.212h1.392v6.442c0 2.603 1.296 3.922 3.851 3.922 1.039 0 1.9-.215 2.713-.675.066-.037.107-.108.107-.184v-2.37c0-.073-.037-.143-.1-.181-.063-.04-.143-.042-.207-.01-.557.281-1.097.41-1.7.41-.93 0-1.344-.422-1.344-1.367v-5.985h3.188c.116 0 .211-.095.211-.212v-2.489c.005-.118-.089-.213-.208-.213z"/><path d="m105.507 15.648v-.4c0-1.177.452-1.702 1.465-1.702.604 0 1.089.12 1.632.3.067.021.137.011.191-.029.056-.04.087-.104.087-.172v-2.44c0-.094-.061-.176-.15-.204-.573-.17-1.308-.346-2.407-.346-2.675 0-4.089 1.506-4.089 4.355v.613h-1.392c-.116 0-.212.096-.212.213v2.502c0 .117.096.212.212.212h1.392v9.936c0 .117.094.212.211.212h2.896c.117 0 .213-.095.213-.212v-9.936h2.704l4.143 9.933c-.471 1.044-.932 1.251-1.563 1.251-.511 0-1.049-.152-1.598-.452-.053-.029-.113-.034-.169-.016-.056.019-.102.06-.125.114l-.982 2.153c-.047.102-.008.221.091.274 1.024.555 1.95.792 3.094.792 2.138 0 3.319-.996 4.362-3.676l5.025-12.984c.024-.066.018-.139-.023-.197-.04-.058-.104-.092-.173-.092h-3.017c-.09 0-.17.057-.2.142l-3.089 8.822-3.383-8.829c-.031-.082-.112-.136-.198-.136h-4.949v-.001z"/><path d="m99.07 15.635h-2.896c-.117 0-.213.095-.213.212v12.637c0 .117.096.212.213.212h2.896c.116 0 .212-.095.212-.212v-12.635c0-.117-.094-.213-.212-.214z"/><path d="m97.637 9.881c-1.148 0-2.078.929-2.078 2.077s.931 2.078 2.078 2.078 2.077-.93 2.077-2.078-.929-2.077-2.077-2.077z"/><path d="m123.012 19.698c-1.147 0-2.038-.921-2.038-2.039s.904-2.049 2.049-2.049c1.147 0 2.038.921 2.038 2.038 0 1.118-.904 2.05-2.049 2.05zm.011-3.885c-1.045 0-1.834.83-1.834 1.846s.783 1.835 1.823 1.835c1.043 0 1.835-.829 1.835-1.846.001-1.016-.786-1.835-1.824-1.835zm.452 2.045.576.807h-.486l-.52-.74h-.446v.74h-.406v-2.139h.953c.497 0 .825.254.825.682.001.351-.202.565-.495.65zm-.344-.965h-.532v.677h.532c.265 0 .422-.13.422-.339-.001-.221-.159-.338-.422-.338z"/></g></svg>